<svg id="Layer_1" data-name="Layer 1" xmlns="http://www.w3.org/2000/svg" viewBox="0 0 36 36"><defs><style>.cls-1{fill:#fff;}</style></defs><g id="Layer_2" data-name="Layer 2"><g id="Surfaces"><g id="Utility_Surface" data-name="Utility Surface"><g id="Outline_no_shadow" data-name="Outline no shadow"><path class="cls-1" d="M29.63.64H6.37A6.376,6.376,0,0,0,0,7.02V28.98a6.376,6.376,0,0,0,6.37,6.38H29.63A6.376,6.376,0,0,0,36,28.98V7.02A6.376,6.376,0,0,0,29.63.64ZM18.61,23.11a4.82364,4.82364,0,0,1-2.08,1.63,7.87557,7.87557,0,0,1-3.14.57,11.5405,11.5405,0,0,1-2.42-.23,6.51765,6.51765,0,0,1-1.71-.58.399.399,0,0,1-.19-.4V21.27a.1612.1612,0,0,1,.06-.13.15425.15425,0,0,1,.16.00995,7.29571,7.29571,0,0,0,2,.93,8.51515,8.51515,0,0,0,2.19.31005,3.45467,3.45467,0,0,0,1.94-.42A1.21226,1.21226,0,0,0,16,20.93a1.3192,1.3192,0,0,0-.19-.72,2.09,2.09,0,0,0-.66-.63,7.55825,7.55825,0,0,0-1.31-.64l-1.19-.5a8.87092,8.87092,0,0,1-2.27-1.32,3.53062,3.53062,0,0,1-1.02-1.51,4.95182,4.95182,0,0,1-.31-1.74,4.35285,4.35285,0,0,1,.64-2.33,4.078,4.078,0,0,1,1.79-1.65,7.07568,7.07568,0,0,1,3.14-.61,15.14494,15.14494,0,0,1,2.13.14,5.11084,5.11084,0,0,1,1.58.45.34634.34634,0,0,1,.17.31v2.69a.23867.23867,0,0,1-.06.11c-.04.04-.09.03-.15-.01a6.29846,6.29846,0,0,0-1.67-.6,9.35231,9.35231,0,0,0-1.97-.21,4.562,4.562,0,0,0-1.17.12,2.98022,2.98022,0,0,0-.77.29,1.14459,1.14459,0,0,0-.44.46,1.1934,1.1934,0,0,0-.15.55,1.15085,1.15085,0,0,0,.22.68,2.2746,2.2746,0,0,0,.71.6c.45.25.91.49,1.38.7l.88.33a9.50492,9.50492,0,0,1,2.45,1.37A4.05489,4.05489,0,0,1,19,18.83a4.72648,4.72648,0,0,1,.36,1.82A4.225,4.225,0,0,1,18.61,23.11Zm8.88-7.27a.14807.14807,0,0,1-.12.17H24.99V21.1a1.8646,1.8646,0,0,0,.28,1.15,1.49321,1.49321,0,0,0,1.13.35c.14,0,.27,0,.4-.01s.25-.02.38-.04a.19487.19487,0,0,1,.13.01.16579.16579,0,0,1,.06.16v1.95c0,.17-.06.28-.19.31-.31.1-.63.17-.95.24a7.29874,7.29874,0,0,1-1.14.09A3.47959,3.47959,0,0,1,22.66,24.5a3.37414,3.37414,0,0,1-.77-2.59v-5.9H20.27c-.13,0-.19-.07-.19-.21V13.83c0-.12995.07-.18995.22-.18995h1.61c.02-.27.04-.97.06-1.33.02-.35.06006-.71.1-1.07s.07-.64.1-.87c.02-.04-.06-.09-.03-.13a.19916.19916,0,0,1,.12-.08l2.71-.36a.24375.24375,0,0,1,.12006,0c.03.02.04.07.04.15-.03.36-.05.86-.07,1.48-.01.63-.03,1.62-.04,2.21h2.33c.09,0,.14.06.14.18995Z"/></g></g></g></g></svg>
