<svg xmlns="http://www.w3.org/2000/svg" width="204" height="45" viewBox="0 0 204 45">
  <g fill="none" fill-rule="evenodd">
    <path fill="#FF0084" d="M35,32.9999 C40.523,32.9999 45,28.5229 45,22.9999 C45,17.4779 40.523,12.9999 35,12.9999 C29.477,12.9999 25,17.4779 25,22.9999 C25,28.5229 29.477,32.9999 35,32.9999"/>
    <path fill="#0063DC" d="M10,32.9999 C15.523,32.9999 20,28.5229 20,22.9999 C20,17.4779 15.523,12.9999 10,12.9999 C4.477,12.9999 0,17.4779 0,22.9999 C0,28.5229 4.477,32.9999 10,32.9999"/>
    <path fill="#FFF" d="M134.7253,13.3103 C137.8463,13.3103 140.6213,13.8393 142.9893,15.0013 L142.2353,22.6703 C140.3263,21.5113 138.4263,20.9903 135.9413,20.9903 C131.4333,20.9903 127.9693,24.1313 127.9693,29.3623 C127.9693,34.1803 132.0103,37.3213 136.5183,37.3213 C138.8873,37.3213 141.2553,36.8003 142.9893,35.8703 L143.2183,43.6603 C140.6213,44.5303 137.5013,45.0003 134.7253,45.0003 C124.7923,45.0003 117.2253,39.1813 117.2253,29.1823 C117.2253,19.1223 124.7923,13.3103 134.7253,13.3103 Z M200.4805,13.3108 C201.6915,13.3108 202.9645,13.4818 204.0005,13.6618 L203.4825,22.3808 C202.3275,22.0288 201.1735,22.0288 199.9595,22.0288 C195.1065,22.0288 192.3885,25.5808 192.3885,31.5118 L192.3885,44.2998 L181.9985,44.2998 L181.9985,14.0108 L191.4705,14.0108 L191.4705,19.5918 L191.5815,19.5918 C193.3745,15.7508 195.9755,13.3108 200.4805,13.3108 Z M157.9483,0.6913 L157.9483,26.7413 L158.0603,26.7413 L166.7263,14.0103 L178.1033,14.0103 L167.6523,27.9093 L178.9693,44.2993 L166.3803,44.2993 L158.0603,29.2993 L157.9483,29.2993 L157.9483,44.2993 L147.5503,44.2993 L147.5503,0.6913 L157.9483,0.6913 Z M98.4503,0.6913 L98.4503,44.2993 L88.0513,44.2993 L88.0513,0.6913 L98.4503,0.6913 Z M113.9403,14.0103 L113.9403,44.2993 L103.5483,44.2993 L103.5483,14.0103 L113.9403,14.0103 Z M78.8073,0.0003 C81.0613,0.0003 82.7953,0.3503 84.1213,0.5803 L83.4843,7.7903 C82.6203,7.4993 81.7543,7.3203 80.1913,7.3203 C77.5363,7.3203 76.5003,9.1823 76.5003,12.1523 L76.5003,14.0103 L83.8923,14.0103 L83.8923,21.3303 L76.5003,21.3303 L76.5003,44.2993 L66.0993,44.2993 L66.0993,21.3303 L59.9803,21.3303 L59.9803,14.0103 L66.2763,14.0103 L66.2763,12.1523 C66.2763,3.1413 70.4913,0.0003 78.8073,0.0003 Z M113.9403,1.3903 L113.9403,9.0703 L103.5483,9.0703 L103.5483,1.3903 L113.9403,1.3903 Z"/>
  </g>
</svg>
