<svg id="Layer_1" data-name="Layer 1" xmlns="http://www.w3.org/2000/svg" viewBox="0 0 36 36"><defs><style>.cls-1{fill:#fff;}</style></defs><g id="Layer_2" data-name="Layer 2"><g id="Surfaces"><g id="Utility_Surface" data-name="Utility Surface"><g id="Outline_no_shadow" data-name="Outline no shadow"><path class="cls-1" d="M11.26,15.62H9.62V12.26a4.783,4.783,0,0,0,.54-.01c.17-.01.36005-.01.57-.01h.7a4.8345,4.8345,0,0,1,1.51.21,1.88945,1.88945,0,0,1,.91.61,1.69069,1.69069,0,0,1,.31,1.06,2.13892,2.13892,0,0,1-.19995.97,2.19444,2.19444,0,0,1-.52.65,4.57854,4.57854,0,0,0-.9-.09C12.12,15.63,11.7,15.62,11.26,15.62Z"/><path class="cls-1" d="M14.4,19.34a1.98953,1.98953,0,0,1,.32,1.14,1.727,1.727,0,0,1-.39,1.13,2.30173,2.30173,0,0,1-1.15.68,6.45111,6.45111,0,0,1-1.75.21c-.38,0-.71,0-.99-.01-.27-.01-.55-.02-.82-.03V18.47H11.7a8.66155,8.66155,0,0,1,.88.05q.33.045.66.12A1.88188,1.88188,0,0,1,14.4,19.34Z"/><path class="cls-1" d="M27.42,17.05a1.98112,1.98112,0,0,0-1.96-1.38,2.10757,2.10757,0,0,0-1.99,1.13,3.16436,3.16436,0,0,0-.31995,1h3.16c.39,0,.67-.01.86-.02a2.16325,2.16325,0,0,0,.35-.03V17.6A2.053,2.053,0,0,0,27.42,17.05Zm0,0a1.98112,1.98112,0,0,0-1.96-1.38,2.10757,2.10757,0,0,0-1.99,1.13,3.16436,3.16436,0,0,0-.31995,1h3.16c.39,0,.67-.01.86-.02a2.16325,2.16325,0,0,0,.35-.03V17.6A2.053,2.053,0,0,0,27.42,17.05ZM29.62.45H6.38A6.37176,6.37176,0,0,0,0,6.83V29.17a6.37177,6.37177,0,0,0,6.38,6.38H29.62A6.37177,6.37177,0,0,0,36,29.17V6.83A6.37176,6.37176,0,0,0,29.62.45ZM21.43,9.11c0-.12.07-.17.19-.17h7.23c.11,0,.16.06.16.19v1.96a.162.162,0,0,1-.14.19.04536.04536,0,0,1-.05,0H21.6c-.11,0-.17-.06-.17-.19ZM17.38,22.96a5.17787,5.17787,0,0,1-2.31,1.73,9.56305,9.56305,0,0,1-3.61.62H9.85c-.50995,0-.97-.01-1.4-.02-.43,0-.8-.01-1.11-.02C7.02,25.26,6.75,25.26,6.53,25.26a.19562.19562,0,0,1-.17-.22V9.7q0-.21.15-.24005c.27-.00995.69-.02,1.25-.03S8.94,9.41,9.6,9.4c.66,0,1.26-.00995,1.81-.00995A9.26081,9.26081,0,0,1,14.56,9.83a4.71744,4.71744,0,0,1,1.8,1.09,3.48856,3.48856,0,0,1,.84,1.39,4.63008,4.63008,0,0,1,.22,1.33A3.81322,3.81322,0,0,1,16.6,16.08a2.47415,2.47415,0,0,1-.65.6,5.25491,5.25491,0,0,1,.95.67,4.05685,4.05685,0,0,1,.91,1.19,4.11173,4.11173,0,0,1,.38,1.86A4.19583,4.19583,0,0,1,17.38,22.96Zm13.26-3.74c-.02.29-.07.59-.08.72a.22488.22488,0,0,1-.22.19c-.1,0-7.19.01-7.19.01a3.07621,3.07621,0,0,0,.45,1.27,2.54286,2.54286,0,0,0,1.1.9,4.55566,4.55566,0,0,0,1.92.34,8.95549,8.95549,0,0,0,1.56-.13,6.21762,6.21762,0,0,0,1.41-.43q.11993-.09.12.12V24.51a.28866.28866,0,0,1-.03.18.574.574,0,0,1-.11.11,6.73369,6.73369,0,0,1-1.57.52,10.81332,10.81332,0,0,1-2.13.18A6.93822,6.93822,0,0,1,23,24.97a5.06992,5.06992,0,0,1-1.88-1.43,5.4958,5.4958,0,0,1-1.04-1.97,7.61549,7.61549,0,0,1,.06-4.56A6.11817,6.11817,0,0,1,21.26,14.96a5.4697,5.4697,0,0,1,1.81-1.43,5.75567,5.75567,0,0,1,2.52-.52,5.51088,5.51088,0,0,1,2.33.46,4.18686,4.18686,0,0,1,1.58,1.25,5.42118,5.42118,0,0,1,.89,1.7,5.98512,5.98512,0,0,1,.29,1.83A9.54876,9.54876,0,0,1,30.64,19.22Zm-5.18-3.55a2.10757,2.10757,0,0,0-1.99,1.13,3.16436,3.16436,0,0,0-.31995,1h3.16c.39,0,.67-.01.86-.02a2.16325,2.16325,0,0,0,.35-.03V17.6a2.053,2.053,0,0,0-.1-.55A1.98112,1.98112,0,0,0,25.46,15.67Z"/></g></g></g></g></svg>
