<?xml version="1.0" encoding="utf-8"?>
<!-- Generator: Adobe Illustrator 24.3.0, SVG Export Plug-In . SVG Version: 6.00 Build 0)  -->
<svg version="1.1" id="Layer_1" xmlns="http://www.w3.org/2000/svg" xmlns:xlink="http://www.w3.org/1999/xlink" x="0px" y="0px"
	 viewBox="0 0 1306 220" style="enable-background:new 0 0 1306 220;" xml:space="preserve">
<style type="text/css">
	.st0{fill:#FFFFFF;}
	.st1{enable-background:new    ;}
</style>
<g id="Group-8" transform="translate(51 35)">
	<g id="Group" transform="translate(0 0)">
		<g id="Group-7">
			<path id="Shape" class="st0" d="M-0.8,135.9c-1.4,0-2.8,0.2-4.1,0.8c-33.7-36-31.8-92.5,4.2-126.1C3.5,6.6,8.2,3.1,13.1,0L10-7.7
				c-46.1,27.9-60.8,88-32.9,134.1c3.6,5.9,7.7,11.4,12.5,16.4c-0.4,1.2-0.6,2.4-0.6,3.6c0,5.7,4.7,10.4,10.4,10.4
				s10.4-4.7,10.4-10.4C9.7,140.6,5,135.9-0.8,135.9z"/>
			<path id="Shape-2" class="st0" d="M122.9,110.8c-1,1.2-4.9,6.3-4.9,6.3c-13.3,18.2-34.6,29-57.1,28.9c-6.4,0.1-12.7-0.8-18.8-2.6
				l-3.9,7.3c7.3,2.2,15,3.3,22.7,3.2c25.3,0,49-12.1,63.9-32.6l11,7.1c-6.6,8.9-14.6,16.6-23.9,22.6l-0.2,0.2
				c-14.8,9.6-32,14.6-49.6,14.6c-9.9,0-19.8-1.7-29.2-4.9c-3.6-1.2-7.2-2.6-10.6-4.2L21,156l5.1-10.1c0.6-1.4,3.7-7.3,3.7-7.3
				c-21.5-9.9-36.3-30.3-39-53.8H4.3c4.6,28.5,29.3,49.3,58.2,49.1c18.1,0,35.1-8.3,46.3-22.4c0.2-0.4,0.5-0.9,0.8-1.2l0,0
				c1-1.2,3.9-6.1,3.9-6.1s-3.9-2.6-6.1-4.2l-5.1,6.7C84.9,128.7,53,132.4,31.1,115c-11.8-9.4-18.9-23.5-19.2-38.6h-29.8
				c0.2,26.8,14.2,51.7,37.1,65.7l-9.4,17c13.7,8.5,29.4,13.5,45.5,14.6c37,2.5,72.4-15.7,91.8-47.3L122.9,110.8z"/>
			<path id="Shape-3" class="st0" d="M28.4,5C4.1,15.9-12.9,38.4-16.9,64.7h30C18.5,41.8,39,25.8,62.5,25.9c14.5,0,28.3,6.2,37.9,17
				l0,0l-10.6,5.9l0,0c-14.9-15.3-39.3-15.7-54.6-0.8s-15.7,39.3-0.8,54.6c7.3,7.5,17.4,11.8,27.9,11.7c9.2,0,18.1-3.2,25.1-9.1
				c1,0.3,2,0.5,3.1,0.6c5.7,0,10.3-4.7,10.2-10.4c0-5.7-4.7-10.3-10.4-10.2c-5.7,0-10.2,4.7-10.2,10.3c0,1.5,0.4,3.1,1,4.4
				c-5.3,4.2-12,6.5-18.8,6.5C45.5,106.3,31.9,92.7,32,76c0-16.8,13.6-30.3,30.4-30.3c7.3,0,14.4,2.7,19.9,7.5c1,1,2.2,2,3.1,3
				l2,3.4l0.4-0.2l0,0l7.1-4l0,0l10.4-5.9l0,0l7.1-4l0,0l-4.9-6.7c-21-24.9-58.2-28.2-83.1-7.2c-7.9,6.6-13.9,15.3-17.5,25H-6.9
				C-0.3,34.5,16.7,17,38.6,9.7l0,0L35.9,2l0,0l-1.9-4.6l-2.7-6.5c38-13.5,80.4-0.5,104.3,31.9l-11.8,6.7
				C109.5,10.4,87.2-1.1,63.3-1.8c-2-5.3-7.8-7.9-13.1-5.9c-5.3,2-7.9,7.8-5.9,13.1c2,5.3,7.8,7.9,13.1,5.9c2.4-0.9,4.4-2.7,5.5-5
				c21.2,0.5,41,10.6,54.1,27.3l4.7,6.7v0.2l7.1-4l18.8-10.5c-0.6-1.2-1.4-2.2-2-3.4l-2.4-3.6c-4.1-5.6-8.8-10.8-13.9-15.6l-0.4-0.8
				l0.4,0.8c-18.2-16.7-42-25.9-66.7-25.9c-11.5,0-22.9,1.9-33.6,5.9c-2.7,1-5.1,2-7.6,3l3.1,7.5L28.4,5z"/>
		</g>
	</g>
</g>
<g>
	<path class="st0" d="M1090.9,87h30.8c14.8,0,25.8,9.6,25.8,23.1c0,13.5-10.9,23.1-25.8,23.1h-16.1v22.2h-14.6V87z M1120,119.8
		c7.3,0,12.2-3.8,12.2-9.7c0-5.9-5-9.7-12.2-9.7h-14.5v19.3H1120z"/>
	<path class="st0" d="M1197.7,155.4l-15.6-22.2h-10.8v22.2h-14.6V87h30.8c14.8,0,25.8,9.6,25.8,23.1c0,10.2-6.2,18.1-15.5,21.4
		l16.8,23.9H1197.7z M1171.2,119.8h14.5c7.3,0,12.2-3.8,12.2-9.7c0-5.9-5-9.7-12.2-9.7h-14.5V119.8z"/>
	<path class="st0" d="M1221.3,121.2c0-19.2,16.7-35.3,36.3-35.3c19.8,0,36.3,16.1,36.3,35.3c0,19.2-16.5,35.4-36.3,35.4
		C1238.1,156.6,1221.3,140.4,1221.3,121.2z M1279,121.2c0-11.8-9.8-22-21.3-22c-11.4,0-21.2,10.2-21.2,22c0,11.9,9.8,22.1,21.2,22.1
		C1269.2,143.3,1279,133.1,1279,121.2z"/>
</g>
<g class="st1">
	<path class="st0" d="M1050.2,150.5c0-4.4,3.8-8.3,8.7-8.3c4.6,0,8.3,3.9,8.3,8.3c0,4.8-3.7,8.7-8.3,8.7
		C1054,159.1,1050.2,155.2,1050.2,150.5z"/>
</g>
<g id="Group-8_1_" transform="translate(51 35)">
	<g id="Group_1_" transform="translate(0 0)">
		<g id="Group-7_1_">
			<path id="Shape_1_" class="st0" d="M-0.8,135.9c-1.4,0-2.8,0.2-4.1,0.8c-33.7-36-31.8-92.5,4.2-126.1C3.5,6.6,8.2,3.1,13.1,0
				L10-7.7c-46.1,27.9-60.8,88-32.9,134.1c3.6,5.9,7.7,11.4,12.5,16.4c-0.4,1.2-0.6,2.4-0.6,3.6c0,5.7,4.7,10.4,10.4,10.4
				s10.4-4.7,10.4-10.4C9.7,140.6,5,135.9-0.8,135.9z"/>
			<path id="Shape-2_1_" class="st0" d="M122.9,110.8c-1,1.2-4.9,6.3-4.9,6.3c-13.3,18.2-34.6,29-57.1,28.9
				c-6.4,0.1-12.7-0.8-18.8-2.6l-3.9,7.3c7.3,2.2,15,3.3,22.7,3.2c25.3,0,49-12.1,63.9-32.6l11,7.1c-6.6,8.9-14.6,16.6-23.9,22.6
				l-0.2,0.2c-14.8,9.6-32,14.6-49.6,14.6c-9.9,0-19.8-1.7-29.2-4.9c-3.6-1.2-7.2-2.6-10.6-4.2L21,156l5.1-10.1
				c0.6-1.4,3.7-7.3,3.7-7.3c-21.5-9.9-36.3-30.3-39-53.8H4.3c4.6,28.5,29.3,49.3,58.2,49.1c18.1,0,35.1-8.3,46.3-22.4
				c0.2-0.4,0.5-0.9,0.8-1.2l0,0c1-1.2,3.9-6.1,3.9-6.1s-3.9-2.6-6.1-4.2l-5.1,6.7C84.9,128.7,53,132.4,31.1,115
				c-11.8-9.4-18.9-23.5-19.2-38.6h-29.8c0.2,26.8,14.2,51.7,37.1,65.7l-9.4,17c13.7,8.5,29.4,13.5,45.5,14.6
				c37,2.5,72.4-15.7,91.8-47.3L122.9,110.8z"/>
			<path id="Shape-3_1_" class="st0" d="M28.4,5C4.1,15.9-12.9,38.4-16.9,64.7h30C18.5,41.8,39,25.8,62.5,25.9
				c14.5,0,28.3,6.2,37.9,17l0,0l-10.6,5.9l0,0c-14.9-15.3-39.3-15.7-54.6-0.8s-15.7,39.3-0.8,54.6c7.3,7.5,17.4,11.8,27.9,11.7
				c9.2,0,18.1-3.2,25.1-9.1c1,0.3,2,0.5,3.1,0.6c5.7,0,10.3-4.7,10.2-10.4c0-5.7-4.7-10.3-10.4-10.2c-5.7,0-10.2,4.7-10.2,10.3
				c0,1.5,0.4,3.1,1,4.4c-5.3,4.2-12,6.5-18.8,6.5C45.5,106.3,31.9,92.7,32,76c0-16.8,13.6-30.3,30.4-30.3c7.3,0,14.4,2.7,19.9,7.5
				c1,1,2.2,2,3.1,3l2,3.4l0.4-0.2l0,0l7.1-4l0,0l10.4-5.9l0,0l7.1-4l0,0l-4.9-6.7c-21-24.9-58.2-28.2-83.1-7.2
				c-7.9,6.6-13.9,15.3-17.5,25H-6.9C-0.3,34.5,16.7,17,38.6,9.7l0,0L35.9,2l0,0l-1.9-4.6l-2.7-6.5c38-13.5,80.4-0.5,104.3,31.9
				l-11.8,6.7C109.5,10.4,87.2-1.1,63.3-1.8c-2-5.3-7.8-7.9-13.1-5.9c-5.3,2-7.9,7.8-5.9,13.1c2,5.3,7.8,7.9,13.1,5.9
				c2.4-0.9,4.4-2.7,5.5-5c21.2,0.5,41,10.6,54.1,27.3l4.7,6.7v0.2l7.1-4l18.8-10.5c-0.6-1.2-1.4-2.2-2-3.4l-2.4-3.6
				c-4.1-5.6-8.8-10.8-13.9-15.6l-0.4-0.8l0.4,0.8c-18.2-16.7-42-25.9-66.7-25.9c-11.5,0-22.9,1.9-33.6,5.9c-2.7,1-5.1,2-7.6,3
				l3.1,7.5L28.4,5z"/>
		</g>
	</g>
</g>
<g class="st1">
	<path class="st0" d="M247.8,105.4c0-27.6,24-50.8,52.2-50.8c14.9,0,28.6,6.3,38.2,16.4l-15.3,13.7c-5.7-6.6-13.9-11-22.9-11
		c-16.4,0-30.5,14.6-30.5,31.6c0,17.2,14,31.8,30.5,31.8c9,0,17.2-4.4,22.9-11l15.3,13.7c-9.6,10-23.3,16.4-38.2,16.4
		C271.8,156.4,247.8,133,247.8,105.4z"/>
	<path class="st0" d="M396.9,79v17.6c-15.4,0-25.3,8.9-25.3,22.7v35.3h-20.9v-74h20.9v13.7C376.4,84.8,385.6,79,396.9,79z"/>
	<path class="st0" d="M407.2,175.8l4.4-14.3c3.6,2,7.3,3.3,9.7,3.3c4,0,7.2-1.3,8.7-4l2.6-5.4l-30.8-74.7h21.6l19.5,51.9l18.5-51.9
		h21.3l-30.3,77.7c-5.6,14.4-15,22-26.6,22C419.6,180.4,412.2,178.5,407.2,175.8z"/>
	<path class="st0" d="M574.6,117.6c0,22.7-14.3,38.8-34,38.8c-10.3,0-18.9-4.4-24.7-12.2v35h-20.9V80.7h20.9V91
		c5.9-7.6,14.4-12,24.7-12C560.3,79,574.6,95,574.6,117.6z M554.3,117.6c0-12.3-8.2-21-19.7-21c-10.2,0-17.6,7.4-18.7,18.2v5.7
		c1.1,10.9,8.6,18.3,18.7,18.3C546.1,138.8,554.3,130,554.3,117.6z"/>
	<path class="st0" d="M633.2,149.9c-4.3,3.9-11,6.4-17,6.4c-13,0-22.2-9.3-22.2-22.6V97.6h-10.2V80.7H594V60.4h20v20.3h16v16.9h-16
		v32.9c0,4.9,3.1,8.3,7,8.3c2.9,0,5.7-1,7.1-2.4L633.2,149.9z"/>
	<path class="st0" d="M642.1,117.6c0-21,18.5-38.6,40.5-38.6c21.9,0,40.2,17.6,40.2,38.6c0,21-18.3,38.8-40.2,38.8
		C660.6,156.4,642.1,138.6,642.1,117.6z M702.9,117.6c0-11.4-9.3-21-20.3-21c-11.2,0-20.5,9.6-20.5,21c0,11.4,9.3,21.2,20.5,21.2
		C693.6,138.8,702.9,129,702.9,117.6z"/>
</g>
<g class="st1">
	<path class="st0" d="M734.7,105.4c0-27.6,23.5-50.8,51.1-50.8c14,0,26.9,5.9,36.2,15.4l-10.2,9.7c-6.6-7.1-15.9-11.9-26-11.9
		c-19.6,0-36.2,17.2-36.2,37.5c0,20.5,16.6,37.6,36.2,37.6c10.2,0,19.5-4.7,26-11.9l10.2,9.7c-9.3,9.4-22.2,15.4-36.2,15.4
		C758.1,156.4,734.7,133,734.7,105.4z"/>
	<path class="st0" d="M832.1,117.6c0-21,17.9-38.6,39-38.6c21,0,38.8,17.6,38.8,38.6c0,21-17.7,38.8-38.8,38.8
		C850,156.4,832.1,138.6,832.1,117.6z M895.8,117.6c0-14.3-11.3-26.3-24.6-26.3c-13.6,0-24.9,12-24.9,26.3
		c0,14.5,11.3,26.5,24.9,26.5C884.4,144.1,895.8,132,895.8,117.6z"/>
	<path class="st0" d="M924.9,59.8c0-4.4,3.7-8.4,8.6-8.4c4.6,0,8.4,4,8.4,8.4c0,4.6-3.9,8.6-8.4,8.6
		C928.7,68.4,924.9,64.4,924.9,59.8z M926.4,80.7h14.2v74h-14.2V80.7z"/>
	<path class="st0" d="M1026.4,107.6v47.1h-13.9V110c0-11-7-18.7-17-18.7c-10.3,0-19.2,6.7-20.3,15.4v47.9H961v-74h14.2v10.7
		c4.4-7.3,13.4-12.4,23.5-12.4C1014.9,79,1026.4,90.9,1026.4,107.6z"/>
</g>
</svg>
